<svg width="125" height="125" viewBox="0 0 125 125" fill="none" xmlns="http://www.w3.org/2000/svg">
<rect width="125" height="125" fill="#FF4556"/>
<path d="M61.5593 49.5282L88.9768 60.2373L91.0815 66.4673C95.9056 68.7923 100.366 71.8622 104.291 75.6818C123.318 74.3817 111.357 59.3358 95.3949 58.4343L53.8879 26.25L53.6373 41.3054C53.5379 47.4642 61.5593 49.5282 61.5593 49.5282Z" fill="white"/>
<path d="M7.5 98.75C7.5 98.75 22.6146 84.3834 57.7464 83.8373C57.7464 83.8373 50.3422 81.1814 45.0712 81.5268C45.0712 81.5268 76.1469 66.4974 117.348 97.6811C102.425 59.4868 51.2892 49.9837 19.6012 76.2012L31.4824 77.6341C31.4872 77.6294 19.6778 83.2071 7.5 98.75Z" fill="white"/>
</svg>
