<svg width="294" height="100" viewBox="0 0 294 100" fill="none" xmlns="http://www.w3.org/2000/svg">
<g clip-path="url(#clip0_1:191)">
<path fill-rule="evenodd" clip-rule="evenodd" d="M283.659 15.6389H294L291.734 28.8028H281.393L275.681 61.3704H262.576L268.294 28.8028H258.444L260.71 15.6389H270.56L272.826 2.83032L284.477 11.1631L283.659 15.6389Z" fill="white"/>
<path fill-rule="evenodd" clip-rule="evenodd" d="M252.923 36.2273L248.587 61.3704H235.488L239.824 36.2273C240.282 33.7854 239.811 31.6923 238.396 29.9415C236.988 28.1907 235.062 27.3153 232.633 27.3153C230.203 27.3153 227.97 28.1709 225.933 29.8888C223.896 31.6067 222.651 33.7196 222.193 36.2273L217.857 61.3704H204.759L212.736 15.6389H225.834L225.147 19.6999C229.22 16.0074 233.648 14.1579 238.442 14.1579C243.498 14.1579 247.441 16.3168 250.263 20.6412C253.086 24.9589 253.977 30.1587 252.923 36.2273Z" fill="white"/>
<path fill-rule="evenodd" clip-rule="evenodd" d="M191.588 15.6388L190.999 19.1009C187.586 15.8033 183.447 14.1513 178.587 14.1513C172.549 14.1513 166.93 16.5274 161.743 21.2795C156.556 26.0317 153.373 31.7712 152.187 38.5046C151.008 45.2379 152.174 50.9774 155.684 55.7296C159.195 60.4818 163.976 62.8579 170.014 62.8579C174.94 62.8579 179.668 61.2058 184.2 57.9083L183.611 61.3704H196.71L204.687 15.6388H191.588V15.6388ZM187.547 38.5046C187.023 41.6047 185.477 44.2441 182.917 46.4227C180.356 48.6013 177.533 49.6874 174.448 49.6874C171.364 49.6874 168.934 48.5816 167.159 46.37C165.384 44.1585 164.762 41.5389 165.286 38.498C165.81 35.3979 167.368 32.7585 169.962 30.5799C172.556 28.4012 175.365 27.3152 178.384 27.3152C181.469 27.3152 183.899 28.4012 185.674 30.5799C187.449 32.7585 188.071 35.4045 187.547 38.5046Z" fill="white"/>
<path fill-rule="evenodd" clip-rule="evenodd" d="M112.099 38.4059C113.081 40.5187 113.31 43.0923 112.786 46.1266C111.869 51.0104 109.079 55.1044 104.416 58.402C100.211 61.3704 95.4174 62.858 90.0338 62.858C86.6871 62.858 83.6285 62.2656 80.8713 61.0743C77.852 59.8237 75.3567 58.1058 73.3854 55.9272L84.0215 46.2253C85.9929 48.5356 88.7501 49.6874 92.2933 49.6874C94.5921 49.6874 96.5307 49.1609 98.1026 48.1012C99.0195 47.5088 99.55 46.8506 99.681 46.12V45.1327L99.5827 45.034L98.4039 44.4416C97.4215 44.1783 95.8103 43.8492 93.577 43.4543C89.3068 42.7961 86.1566 41.868 84.1197 40.6833C79.9151 38.1756 78.3105 34.1803 79.2929 28.7041C80.0133 24.0835 82.3121 20.4569 86.1893 17.8175C89.4706 15.3756 93.6097 14.1579 98.6003 14.1579C104.704 14.1579 109.76 15.6454 113.769 18.6139L104.508 29.5992C102.406 28.0854 99.6482 27.3219 96.236 27.3219C94.3302 27.3219 93.1513 27.5522 92.6928 28.013C92.4964 28.0788 92.3981 28.3092 92.3981 28.7041C92.6601 29.2965 93.8128 29.8428 95.8431 30.3364C97.8799 30.8301 100.146 31.3237 102.641 31.8239C105.137 32.3176 106.846 32.8639 107.763 33.4563C109.865 34.6476 111.313 36.2931 112.099 38.4059Z" fill="white"/>
<path fill-rule="evenodd" clip-rule="evenodd" d="M71.1979 36.2273L66.8623 61.3704H53.7636L58.0992 36.2273C58.5577 33.7854 58.0861 31.6923 56.6715 29.9415C55.2634 28.1907 53.3379 27.3153 50.9081 27.3153C48.4783 27.3153 46.2449 28.1709 44.2081 29.8888C42.1712 31.6067 40.9269 33.7196 40.4684 36.2273L36.1327 61.3704H23.0341L31.0112 15.6389H44.1098L43.4222 19.6999C47.4959 16.0074 51.9232 14.1579 56.7173 14.1579C61.7734 14.1579 65.7161 16.3168 68.5389 20.6412C71.3617 24.9589 72.2458 30.1587 71.1979 36.2273Z" fill="white"/>
<path fill-rule="evenodd" clip-rule="evenodd" d="M22.6673 6.549L13.0987 61.3703H0L9.56204 6.549H22.6673Z" fill="white"/>
<path fill-rule="evenodd" clip-rule="evenodd" d="M144.74 0C139.396 2.21813 134.589 4.53498 130.424 6.73995L128.885 15.6454H120.862L109.715 28.8093H126.625L120.914 61.377H134.013L139.724 28.8093H150.065L152.331 15.6454H142.009H141.99L144.74 0Z" fill="white"/>
<path fill-rule="evenodd" clip-rule="evenodd" d="M169.772 67.2086L167.827 77.4765C167.296 76.5484 166.55 75.8113 165.58 75.2781C164.611 74.7384 163.472 74.4685 162.155 74.4685C160.865 74.4685 159.627 74.6989 158.448 75.1662C157.263 75.6336 156.202 76.2852 155.246 77.1277C154.296 77.9702 153.484 78.9772 152.809 80.1554C152.135 81.327 151.67 82.6236 151.395 84.0453C151.12 85.4868 151.1 86.7966 151.323 87.9682C151.552 89.1398 151.978 90.1534 152.613 90.9959C153.242 91.8384 154.06 92.49 155.069 92.9573C156.077 93.4246 157.224 93.655 158.514 93.655C159.83 93.655 161.068 93.3852 162.24 92.8454C163.413 92.3057 164.441 91.5751 165.319 90.6471L164.827 93.2535H168.109L173.04 67.2086H169.772V67.2086ZM165.987 87.1981C165.305 88.2249 164.402 89.0542 163.288 89.6927C162.168 90.3311 160.963 90.6471 159.673 90.6471C158.822 90.6471 158.049 90.5023 157.348 90.2061C156.647 89.9099 156.077 89.482 155.625 88.9028C155.174 88.3302 154.866 87.6325 154.709 86.8098C154.545 85.9936 154.564 85.0655 154.761 84.0387C154.957 83.012 155.285 82.0971 155.756 81.2875C156.228 80.4779 156.791 79.7868 157.466 79.2142C158.134 78.6415 158.874 78.2071 159.686 77.9109C160.498 77.6147 161.323 77.4699 162.175 77.4699C163.465 77.4699 164.546 77.7859 165.423 78.4243C166.301 79.0628 166.884 79.9053 167.172 80.9584L165.987 87.1981Z" fill="white"/>
<path fill-rule="evenodd" clip-rule="evenodd" d="M191.719 79.9381C191.503 78.8389 191.084 77.8845 190.475 77.0749C189.859 76.2653 189.066 75.6335 188.084 75.1661C187.102 74.6988 185.956 74.4684 184.639 74.4684C183.323 74.4684 182.072 74.6988 180.873 75.1661C179.675 75.6335 178.601 76.2851 177.638 77.1276C176.675 77.9701 175.863 78.9837 175.201 80.175C174.54 81.3598 174.075 82.663 173.806 84.0781C173.545 85.4472 173.525 86.7175 173.741 87.8891C173.957 89.0607 174.389 90.0743 175.044 90.9366C175.699 91.7922 176.551 92.4636 177.599 92.9506C178.653 93.4377 179.871 93.6812 181.253 93.6812C183.008 93.6812 184.633 93.3061 186.139 92.5623C187.645 91.8185 188.975 90.8181 190.134 89.5741L188.523 87.481C187.711 88.4354 186.722 89.2121 185.563 89.811C184.403 90.41 183.205 90.7128 181.96 90.7128C180.186 90.7128 178.869 90.2191 178.011 89.2252C177.153 88.2379 176.786 86.8952 176.911 85.2102H191.221C191.319 84.9404 191.411 84.6508 191.49 84.348C191.575 84.0452 191.64 83.7556 191.686 83.4858C191.929 82.222 191.935 81.0373 191.719 79.9381ZM188.562 82.4656H177.468C178.037 80.853 178.908 79.5958 180.081 78.7072C181.247 77.8121 182.583 77.3711 184.096 77.3711C185.582 77.3711 186.741 77.8253 187.58 78.727C188.412 79.6353 188.739 80.8793 188.562 82.4656Z" fill="white"/>
<path fill-rule="evenodd" clip-rule="evenodd" d="M198.53 67.2086H201.811L196.88 93.2535H193.599L198.53 67.2086Z" fill="white"/>
<path fill-rule="evenodd" clip-rule="evenodd" d="M205.401 74.8767H208.682L205.204 93.2536H201.916L205.401 74.8767Z" fill="white"/>
<path fill-rule="evenodd" clip-rule="evenodd" d="M206.796 66.7346H210.339L209.586 70.697H206.042L206.796 66.7346Z" fill="white"/>
<path fill-rule="evenodd" clip-rule="evenodd" d="M211.642 74.8767H215.146L218.185 89.0674L226.64 74.8767H230.144L218.997 93.2536H215.821L211.642 74.8767Z" fill="white"/>
<path fill-rule="evenodd" clip-rule="evenodd" d="M247.526 79.9381C247.31 78.8389 246.891 77.8845 246.282 77.0749C245.666 76.2653 244.873 75.6335 243.891 75.1661C242.909 74.6988 241.762 74.4684 240.446 74.4684C239.13 74.4684 237.879 74.6988 236.68 75.1661C235.482 75.6335 234.408 76.2851 233.445 77.1276C232.482 77.9701 231.67 78.9837 231.008 80.175C230.347 81.3598 229.882 82.663 229.613 84.0781C229.351 85.4472 229.332 86.7175 229.548 87.8891C229.764 89.0607 230.196 90.0743 230.851 90.9366C231.506 91.7922 232.358 92.4636 233.406 92.9506C234.46 93.4377 235.678 93.6812 237.06 93.6812C238.815 93.6812 240.44 93.3061 241.946 92.5623C243.452 91.8185 244.782 90.8181 245.941 89.5741L244.33 87.481C243.518 88.4354 242.529 89.2121 241.37 89.811C240.21 90.41 239.012 90.7128 237.767 90.7128C235.992 90.7128 234.676 90.2191 233.818 89.2252C232.96 88.2379 232.593 86.8952 232.718 85.2102H247.022C247.12 84.9404 247.212 84.6508 247.297 84.348C247.382 84.0452 247.447 83.7556 247.5 83.4858C247.729 82.222 247.742 81.0373 247.526 79.9381ZM244.363 82.4656H233.268C233.838 80.853 234.709 79.5958 235.881 78.7072C237.047 77.8121 238.383 77.3711 239.896 77.3711C241.383 77.3711 242.542 77.8253 243.38 78.727C244.212 79.6353 244.539 80.8793 244.363 82.4656Z" fill="white"/>
<path fill-rule="evenodd" clip-rule="evenodd" d="M252.883 74.8766H256.171L255.575 78.0294C256.282 77.0026 257.18 76.1535 258.267 75.4822C259.354 74.8108 260.605 74.4751 262.013 74.4751H262.413L261.81 77.6674C260.317 77.7135 258.974 78.0557 257.782 78.6942C256.59 79.3326 255.614 80.366 254.855 81.814L252.687 93.2601H249.406L252.883 74.8766Z" fill="white"/>
<path fill-rule="evenodd" clip-rule="evenodd" d="M267.862 91.1605L262.242 100H265.746L281.569 74.8767H278.065L270.232 87.4943L266.82 74.8767H263.316L267.862 91.1605Z" fill="white"/>
</g>
<defs>
<clipPath id="clip0_1:191">
<rect width="294" height="100" fill="white"/>
</clipPath>
</defs>
</svg>
