<svg width="330" height="223" viewBox="0 0 330 223" fill="none" xmlns="http://www.w3.org/2000/svg">
<g clip-path="url(#clip0_1:168)">
<path fill-rule="evenodd" clip-rule="evenodd" d="M318.392 129.121H330L327.456 143.771H315.849L309.438 180.016H294.736L301.146 143.771H290.09L292.633 129.121H303.69L306.241 114.859L319.319 124.14L318.392 129.121ZM283.893 152.034L279.026 180.016H264.323L269.19 152.034C269.705 149.316 269.175 146.987 267.587 145.038C266.007 143.09 263.846 142.116 261.118 142.116C258.391 142.116 255.884 143.068 253.598 144.98C251.312 146.892 249.915 149.243 249.4 152.034L244.534 180.016H229.831L238.785 129.121H253.488L252.716 133.64C257.288 129.531 262.258 127.473 267.639 127.473C273.314 127.473 277.74 129.875 280.908 134.688C284.076 139.493 285.076 145.273 283.893 152.034ZM187.627 163.322C189.62 165.783 192.347 167.014 195.809 167.014C199.272 167.014 202.44 165.805 205.315 163.38C208.189 160.956 209.924 158.018 210.512 154.568C211.1 151.118 210.402 148.181 208.409 145.756C206.417 143.332 203.69 142.123 200.227 142.123C196.838 142.123 193.685 143.332 190.774 145.756C187.863 148.181 186.113 151.118 185.525 154.568C184.937 157.945 185.635 160.861 187.627 163.322ZM215.048 129.121H229.75L220.796 180.016H206.094L206.755 176.163C201.668 179.833 196.361 181.671 190.832 181.671C184.055 181.671 178.688 179.027 174.748 173.738C170.808 168.449 169.499 162.062 170.822 154.568C172.153 147.075 175.726 140.687 181.548 135.398C187.37 130.11 193.67 127.465 200.455 127.465C205.91 127.465 210.556 129.304 214.386 132.974L215.048 129.121ZM125.825 154.458C126.928 156.81 127.185 159.674 126.597 163.051C125.568 168.486 122.436 173.042 117.202 176.712C112.482 180.016 107.101 181.671 101.058 181.671C97.3018 181.671 93.8688 181.012 90.7739 179.686C87.3849 178.295 84.5841 176.383 82.3714 173.958L94.3099 163.161C96.5226 165.732 99.6175 167.014 103.595 167.014C106.175 167.014 108.351 166.428 110.115 165.248C111.144 164.589 111.74 163.857 111.887 163.044V161.945L111.777 161.835L110.453 161.176C109.351 160.883 107.542 160.516 105.035 160.077C100.242 159.344 96.7064 158.311 94.4201 156.993C89.7006 154.202 87.8995 149.756 89.0022 143.661C89.8109 138.519 92.3912 134.483 96.7432 131.545C100.426 128.828 105.072 127.473 110.674 127.473C117.525 127.473 123.2 129.128 127.699 132.432L117.305 144.657C114.945 142.973 111.85 142.123 108.02 142.123C105.881 142.123 104.558 142.379 104.043 142.892C103.822 142.965 103.712 143.222 103.712 143.661C104.006 144.32 105.3 144.928 107.579 145.478C109.865 146.027 112.409 146.577 115.21 147.133C118.01 147.683 119.929 148.291 120.958 148.95C123.318 150.268 124.943 152.107 125.825 154.458ZM79.916 152.034L75.0495 180.016H60.3468L65.2134 152.034C65.728 149.316 65.1987 146.987 63.6108 145.038C62.0303 143.09 59.869 142.116 57.1417 142.116C54.4143 142.116 51.9075 143.068 49.6213 144.98C47.335 146.892 45.9383 149.243 45.4237 152.034L40.5571 180.016H25.8545L34.8084 129.121H49.511L48.7391 133.64C53.3117 129.531 58.2811 127.473 63.6623 127.473C69.3375 127.473 73.763 129.875 76.9314 134.688C80.0998 139.493 81.0922 145.273 79.916 152.034ZM25.4429 119.005L14.7026 180.016H0L10.7329 119.005H25.4429ZM162.464 111.709C156.465 114.177 151.069 116.756 146.394 119.21L144.666 129.121H135.661L123.149 143.771H142.13L135.72 180.016H150.422L156.833 143.771H168.44L170.984 129.121H159.398H159.376L162.464 111.709ZM185.576 212.591C184.584 213.624 183.437 214.444 182.121 215.038C180.805 215.638 179.409 215.939 177.938 215.939C176.49 215.939 175.204 215.682 174.072 215.162C172.939 214.649 172.02 213.917 171.315 212.979C170.609 212.042 170.124 210.913 169.867 209.61C169.609 208.306 169.639 206.848 169.947 205.244C170.249 203.669 170.778 202.226 171.535 200.915C172.292 199.611 173.204 198.49 174.27 197.545C175.336 196.607 176.534 195.882 177.865 195.362C179.195 194.842 180.577 194.586 182.026 194.586C183.503 194.586 184.782 194.886 185.87 195.487C186.958 196.087 187.796 196.9 188.392 197.933L190.575 186.506H194.258L188.723 215.492H185.04L185.576 212.591ZM179.225 212.591C180.673 212.591 182.026 212.239 183.283 211.529C184.54 210.818 185.547 209.895 186.311 208.753L187.635 201.816C187.311 200.644 186.657 199.706 185.672 198.995C184.687 198.285 183.474 197.933 182.026 197.933C181.07 197.933 180.136 198.094 179.232 198.424C178.321 198.754 177.49 199.23 176.74 199.874C175.99 200.512 175.351 201.281 174.821 202.182C174.292 203.083 173.924 204.101 173.704 205.244C173.483 206.387 173.469 207.412 173.645 208.328C173.829 209.236 174.167 210.012 174.674 210.657C175.182 211.294 175.828 211.778 176.608 212.107C177.402 212.43 178.269 212.591 179.225 212.591ZM203.447 215.983C201.889 215.983 200.522 215.711 199.345 215.169C198.169 214.627 197.206 213.88 196.478 212.928C195.743 211.976 195.258 210.848 195.015 209.536C194.773 208.232 194.795 206.819 195.089 205.295C195.39 203.72 195.912 202.27 196.655 200.951C197.397 199.633 198.309 198.505 199.389 197.56C200.47 196.622 201.683 195.897 203.021 195.377C204.359 194.857 205.77 194.6 207.248 194.6C208.726 194.6 210.012 194.857 211.115 195.377C212.217 195.897 213.114 196.6 213.798 197.501C214.489 198.402 214.952 199.457 215.195 200.688C215.437 201.911 215.423 203.229 215.151 204.65C215.092 204.951 215.018 205.273 214.93 205.61C214.834 205.947 214.739 206.269 214.621 206.57H198.559C198.419 208.445 198.831 209.939 199.794 211.038C200.757 212.137 202.234 212.693 204.227 212.693C205.616 212.693 206.969 212.357 208.27 211.69C209.571 211.023 210.681 210.159 211.593 209.097L213.401 211.426C212.1 212.811 210.6 213.924 208.917 214.752C207.241 215.565 205.41 215.983 203.447 215.983ZM206.63 197.816C204.94 197.816 203.433 198.314 202.124 199.303C200.816 200.299 199.838 201.691 199.191 203.486H211.644C211.842 201.72 211.475 200.329 210.534 199.325C209.6 198.322 208.292 197.816 206.63 197.816ZM222.84 186.513H226.523L220.988 215.499H217.297L222.84 186.513ZM230.552 195.04H234.242L230.331 215.492H226.648L230.552 195.04ZM232.117 185.979H236.094L235.249 190.388H231.272L232.117 185.979ZM237.557 195.04H241.49L244.901 210.833L254.392 195.04H258.325L245.813 215.492H242.247L237.557 195.04ZM266.08 215.983C268.051 215.983 269.874 215.565 271.564 214.737C273.255 213.909 274.748 212.796 276.049 211.412L274.24 209.082C273.329 210.144 272.219 211.009 270.918 211.675C269.616 212.342 268.271 212.679 266.874 212.679C264.882 212.679 263.405 212.129 262.442 211.023C261.478 209.925 261.067 208.43 261.206 206.555H277.262C277.372 206.255 277.475 205.932 277.57 205.595C277.666 205.258 277.74 204.936 277.798 204.636C278.07 203.222 278.085 201.904 277.835 200.673C277.593 199.45 277.122 198.387 276.438 197.486C275.747 196.585 274.858 195.882 273.755 195.362C272.652 194.842 271.366 194.586 269.888 194.586C268.411 194.586 267.007 194.842 265.661 195.362C264.316 195.882 263.11 196.607 262.03 197.545C260.949 198.483 260.038 199.611 259.295 200.937C258.553 202.255 258.031 203.706 257.729 205.28C257.435 206.804 257.413 208.218 257.656 209.522C257.898 210.826 258.384 211.954 259.119 212.913C259.854 213.866 260.81 214.613 261.986 215.155C263.155 215.711 264.522 215.983 266.08 215.983ZM269.264 197.816C270.932 197.816 272.233 198.322 273.174 199.325C274.115 200.329 274.483 201.72 274.284 203.486H261.831C262.471 201.691 263.449 200.292 264.765 199.303C266.066 198.314 267.573 197.816 269.264 197.816ZM283.849 195.04H287.539L286.87 198.549C287.664 197.406 288.671 196.461 289.891 195.714C291.112 194.967 292.516 194.593 294.096 194.593H294.545L293.868 198.146C292.192 198.197 290.685 198.578 289.347 199.288C288.009 199.999 286.914 201.149 286.061 202.761L283.628 215.499H279.945L283.849 195.04ZM300.661 213.17L294.354 223.007H298.286L316.04 195.047H312.107L303.322 209.09L299.492 195.047H295.559L300.661 213.17ZM134.33 122.279C134.33 122.279 159.891 97.4687 219.311 96.5237C219.311 96.5237 206.785 91.9308 197.875 92.5315C197.875 92.5315 250.429 66.5784 320.12 120.426C294.883 54.4699 208.395 38.0616 154.804 83.3311L174.902 85.807C174.895 85.807 154.929 95.4323 134.33 122.279ZM225.641 39.5486C225.641 39.5486 211.923 36.0398 212.092 25.5722L212.519 0L283.518 54.6824C310.813 56.2133 331.272 81.7708 298.728 83.983C292.016 77.4929 284.385 72.2774 276.13 68.3291L272.528 57.7443L225.641 39.5486Z" fill="white"/>
</g>
<defs>
<clipPath id="clip0_1:168">
<rect width="330" height="223" fill="white"/>
</clipPath>
</defs>
</svg>
